<?xml version="1.0" encoding="UTF-8" standalone="no"?>
<!DOCTYPE svg PUBLIC "-//W3C//DTD SVG 1.1//EN" "http://www.w3.org/Graphics/SVG/1.1/DTD/svg11.dtd">
<svg xmlns="http://www.w3.org/2000/svg" version="1.1" viewBox="0.00 0.00 512.00 512.00">
<path fill="#000000" d="
  M 512.00 226.32
  L 512.00 229.76
  Q 510.76 235.91 507.63 244.22
  C 489.86 291.39 457.79 328.72 406.50 338.98
  Q 369.76 346.33 330.85 335.64
  Q 285.25 323.10 256.27 284.21
  Q 255.93 283.75 255.59 284.21
  C 228.60 321.28 186.03 340.89 140.74 341.72
  C 122.19 342.05 103.79 340.03 86.49 333.73
  C 42.78 317.82 14.95 278.75 1.26 235.50
  Q 0.78 234.00 0.00 229.67
  L 0.00 226.21
  C 1.55 218.98 10.10 225.58 13.20 227.86
  C 24.14 235.89 40.33 239.89 53.01 239.21
  C 68.22 238.40 84.39 227.24 96.39 217.63
  C 130.07 190.69 164.51 158.95 211.92 174.16
  C 229.14 179.68 242.70 190.90 255.67 203.20
  Q 256.08 203.59 256.48 203.19
  C 277.08 182.04 302.53 167.56 332.63 170.66
  C 376.21 175.14 403.13 214.14 439.30 233.41
  C 459.62 244.24 484.76 238.69 502.33 225.39
  C 505.16 223.25 510.79 220.72 512.00 226.32
  Z"
/>
</svg>
